<svg xmlns="http://www.w3.org/2000/svg" xmlns:xlink="http://www.w3.org/1999/xlink" xmlns:lucid="lucid" width="1860" height="1052"><g transform="translate(-20 -8)" lucid:page-tab-id="0_0"><path d="M800 200h160v60H800z" stroke="#000" stroke-width="2" fill="#fff"/><use xlink:href="#a" transform="matrix(1,0,0,1,805,205) translate(47.074999999999996 30.025)"/><path d="M1550 200h160v60h-160z" stroke="#000" stroke-width="2" fill="#fff"/><use xlink:href="#b" transform="matrix(1,0,0,1,1555,205) translate(51.55 17.525)"/><use xlink:href="#c" transform="matrix(1,0,0,1,1555,205) translate(10.625 39.125)"/><path d="M1240 170l80 60-80 60-80-60z" stroke="#000" stroke-width="2" fill="#fff"/><use xlink:href="#d" transform="matrix(1,0,0,1,1165,175) translate(38.029999999999994 59.0875)"/><path d="M628 140l60 40-60 40-60-40z" stroke="#000" stroke-width="2" fill="#fff"/><use xlink:href="#e" transform="matrix(1,0,0,1,573,145) translate(26.6 27.799999999999997)"/><use xlink:href="#f" transform="matrix(1,0,0,1,573,145) translate(62.45 27.799999999999997)"/><use xlink:href="#g" transform="matrix(1,0,0,1,573,145) translate(19.074999999999996 49.4)"/><path d="M304 155h148v50H304z" stroke="#000" stroke-width="2" fill="#fff"/><use xlink:href="#h" transform="matrix(1,0,0,1,309,160) translate(21.65 24.4)"/><path d="M454 180h111.2" stroke="#000" stroke-width="2" fill="none"/><path d="M454.03 181H453v-2h1.03zM566.2 180l1.5 1h-2.53v-2h2.53z"/><path d="M798 230h-53.6v-50h-53.6" stroke="#000" stroke-width="2" fill="none"/><path d="M799 231h-1.03v-2H799zM690.83 181h-2.53l1.5-1-1.5-1h2.53z"/><path d="M962 230h195.33" stroke="#000" stroke-width="2" fill="none"/><path d="M962.03 231H961v-2h1.03zM1158.33 230l1.34 1h-2.36v-2h2.37z"/><path d="M1548 230h-225.33" stroke="#000" stroke-width="2" fill="none"/><path d="M1549 231h-1.03v-2h1.03zM1322.7 231h-2.37l1.34-1-1.34-1h2.36z"/><path d="M380 70c0 16.57-35.82 30-80 30s-80-13.43-80-30 35.82-30 80-30 80 13.43 80 30z" stroke="#000" stroke-width="2" fill="#fff"/><use xlink:href="#i" transform="matrix(1,0,0,1,225,45) translate(40.60499999999999 30.025)"/><path d="M378 153v-25.5h-78.1V102" stroke="#000" stroke-width="2" fill="none"/><path d="M379 154h-2v-1.03h2zM300 101h.9v1.02h-2v-1.05z"/><path d="M900 70c0 16.57-35.82 30-80 30s-80-13.43-80-30 35.82-30 80-30 80 13.43 80 30z" stroke="#000" stroke-width="2" fill="#fff"/><use xlink:href="#j" transform="matrix(1,0,0,1,745,45) translate(44.07999999999999 30.025)"/><path d="M880 198v-48h-60v-48" stroke="#000" stroke-width="2" fill="none"/><path d="M881 199h-2v-1.03h2zM820 101h1v1.03h-2v-1.06z"/><path d="M1060 62c0 16.57-31.34 30-70 30s-70-13.43-70-30 31.34-30 70-30 70 13.43 70 30z" stroke="#000" stroke-width="2" fill="#fff"/><use xlink:href="#k" transform="matrix(1,0,0,1,925,37) translate(25.554999999999996 30.025)"/><path d="M921.33 198v-52H990V94" stroke="#000" stroke-width="2" fill="none"/><path d="M922.33 199h-2v-1.03h2zM990 93l1-.03v1.06h-2v-1.06z"/><path d="M188 122.5c0 17.95-33.13 32.5-74 32.5s-74-14.55-74-32.5S73.13 90 114 90s74 14.55 74 32.5z" stroke="#000" stroke-width="2" fill="#fff"/><use xlink:href="#l" transform="matrix(1,0,0,1,45,95) translate(36.025 31.5875)"/><path d="M302 180h-56v-57.5h-56" stroke="#000" stroke-width="2" fill="none"/><path d="M303 181h-1.03v-2H303zM190.03 123.5h-1.06l.03-1v-.27l-.04-.73h1.07z"/><path d="M188 225c0 13.8-30 25-67 25s-67-11.2-67-25 30-25 67-25 67 11.2 67 25z" stroke="#000" stroke-width="2" fill="#fff"/><use xlink:href="#m" transform="matrix(1,0,0,1,59,205) translate(38.055 24.4)"/><path d="M190 225h122v-18" stroke="#000" stroke-width="2" fill="none"/><path d="M190.03 226h-1.08l.02-.2.03-.78v-.08l-.03-.76-.02-.18h1.08zM313 207.03h-2V206h2z"/><path d="M580 60c0 16.57-31.34 30-70 30s-70-13.43-70-30 31.34-30 70-30 70 13.43 70 30z" stroke="#000" stroke-width="2" fill="#fff"/><use xlink:href="#n" transform="matrix(1,0,0,1,445,35) translate(22.104999999999993 30.025)"/><path d="M412 153v-30.5h98V92" stroke="#000" stroke-width="2" fill="none"/><path d="M413 154h-2v-1.03h2zM510 91l1-.03v1.06h-2v-1.06z"/><path d="M660 360l80 50-80 50-80-50z" stroke="#000" stroke-width="2" fill="#fff"/><use xlink:href="#d" transform="matrix(1,0,0,1,585,365) translate(38.029999999999994 48.15)"/><path d="M180 380h160v60H180z" stroke="#000" stroke-width="2" fill="#fff"/><use xlink:href="#o" transform="matrix(1,0,0,1,185,385) translate(19.124999999999993 30.025)"/><path d="M342 410h235.1" stroke="#000" stroke-width="2" fill="none"/><path d="M342.03 411H341v-2h1.03zM578.1 410l1.6 1h-2.6v-2h2.6z"/><path d="M880 262v148H742.9" stroke="#000" stroke-width="2" fill="none"/><path d="M881 262.03h-2V261h2zM742.9 411h-2.6l1.6-1-1.6-1h2.6z"/><path d="M188 325c0 13.8-33.13 25-74 25s-74-11.2-74-25 33.13-25 74-25 74 11.2 74 25z" stroke="#000" stroke-width="2" fill="#fff"/><use xlink:href="#p" transform="matrix(1,0,0,1,45,305) translate(18.254999999999995 24.4)"/><path d="M190 325h70v53" stroke="#000" stroke-width="2" fill="none"/><path d="M190.03 326h-1.1l.05-.35.02-.64v-.17l-.03-.64-.03-.2h1.1zM261 379h-2v-1.03h2z"/><path d="M488 292.5c0 19.33-33.13 35-74 35s-74-15.67-74-35 33.13-35 74-35 74 15.67 74 35z" stroke="#000" stroke-width="2" fill="#fff"/><use xlink:href="#q" transform="matrix(1,0,0,1,345,262.5) translate(6.074999999999996 33.15)"/><use xlink:href="#r" transform="matrix(1,0,0,1,345,262.5) translate(49.025 33.15)"/><use xlink:href="#s" transform="matrix(1,0,0,1,345,262.5) translate(69.025 33.15)"/><path d="M414 329.5v24.25H305.33V378" stroke="#000" stroke-width="2" fill="none"/><path d="M414 328.5h1v1.03h-2v-1.06zM306.33 379h-2v-1.03h2z"/><path d="M1520 66c0 18.78-35.82 34-80 34s-80-15.22-80-34 35.82-34 80-34 80 15.22 80 34z" stroke="#000" stroke-width="2" fill="#fff"/><use xlink:href="#t" transform="matrix(1,0,0,1,1365,37) translate(21.549999999999997 32.525)"/><use xlink:href="#u" transform="matrix(1,0,0,1,1365,37) translate(83.5 32.525)"/><path d="M1700 62c0 18.78-31.34 34-70 34s-70-15.22-70-34 31.34-34 70-34 70 15.22 70 34z" stroke="#000" stroke-width="2" fill="#fff"/><use xlink:href="#v" transform="matrix(1,0,0,1,1565,33) translate(24.549999999999997 32.525)"/><path d="M1440 102v48h123.33v48" stroke="#000" stroke-width="2" fill="none"/><path d="M1440 101h1v1.03h-2v-1.06zM1564.33 199h-2v-1.03h2z"/><path d="M1630 98v100" stroke="#000" stroke-width="2" fill="none"/><path d="M1630 97l1-.03v1.06h-2v-1.06zM1631 199h-2v-1.03h2z"/><path d="M1860 121c0 18.78-31.34 34-70 34s-70-15.22-70-34 31.34-34 70-34 70 15.22 70 34z" stroke="#000" stroke-width="2" fill="#fff"/><use xlink:href="#w" transform="matrix(1,0,0,1,1725,92) translate(17.549999999999997 32.525)"/><path d="M1790 157v20.5h-117.33V198" stroke="#000" stroke-width="2" fill="none"/><path d="M1790 156l1-.03v1.06h-2v-1.06zM1673.67 199h-2v-1.03h2z"/><path d="M1550 580h160v60h-160z" stroke="#000" stroke-width="2" fill="#fff"/><use xlink:href="#x" transform="matrix(1,0,0,1,1555,585) translate(44.225 30.025)"/><path d="M1630 340l80 60-80 60-80-60z" stroke="#000" stroke-width="2" fill="#fff"/><use xlink:href="#y" transform="matrix(1,0,0,1,1555,345) translate(32.529999999999994 59.0875)"/><use xlink:href="#z" transform="matrix(1,0,0,1,1555,345) translate(102.48 59.0875)"/><path d="M1630 262v75.75" stroke="#000" stroke-width="2" fill="none"/><path d="M1631 262.03h-2V261h2zM1631 339.5l-1-.75-1 .75v-1.78h2z"/><path d="M1630 578V462.25" stroke="#000" stroke-width="2" fill="none"/><path d="M1631 579h-2v-1.03h2zM1631 462.28h-2v-1.78l1 .75 1-.75z"/><path d="M1838.4 530c0 16.57-28.74 30-64.2 30-35.46 0-64.2-13.43-64.2-30s28.74-30 64.2-30c35.46 0 64.2 13.43 64.2 30z" stroke="#000" stroke-width="2" fill="#fff"/><use xlink:href="#A" transform="matrix(1,0,0,1,1715,505) translate(18.275 30.025)"/><path d="M1708 530h-38.67v48" stroke="#000" stroke-width="2" fill="none"/><path d="M1709 529.98v.24l.04.78h-1.07v-2h1.07zM1670.33 579h-2v-1.03h2z"/><path d="M1828.4 770c0 16.57-28.74 30-64.2 30-35.46 0-64.2-13.43-64.2-30s28.74-30 64.2-30c35.46 0 64.2 13.43 64.2 30z" stroke="#000" stroke-width="2" fill="#fff"/><use xlink:href="#B" transform="matrix(1,0,0,1,1705,745) translate(23.049999999999997 30.025)"/><path d="M1682.67 642v128H1698" stroke="#000" stroke-width="2" fill="none"/><path d="M1683.67 642.03h-2V641h2zM1699 769.98v.24l.04.78h-1.07v-2h1.07z"/><path d="M1798.4 850c0 16.57-30.98 30-69.2 30s-69.2-13.43-69.2-30 30.98-30 69.2-30 69.2 13.43 69.2 30z" stroke="#000" stroke-width="2" fill="#fff"/><use xlink:href="#C" transform="matrix(1,0,0,1,1665,825) translate(19.554999999999996 30.025)"/><path d="M1630 642v208h28" stroke="#000" stroke-width="2" fill="none"/><path d="M1631 642.03h-2V641h2zM1659 850l.02.77.02.23h-1.07v-2h1.07z"/><path d="M1772.6 930c0 16.57-38.64 30-86.3 30s-86.3-13.43-86.3-30 38.64-30 86.3-30 86.3 13.43 86.3 30z" stroke="#000" stroke-width="2" fill="#fff"/><use xlink:href="#q" transform="matrix(1,0,0,1,1605,905) translate(31.07999999999999 30.025)"/><use xlink:href="#r" transform="matrix(1,0,0,1,1605,905) translate(74.03 30.025)"/><use xlink:href="#D" transform="matrix(1,0,0,1,1605,905) translate(94.03 30.025)"/><path d="M1586.67 642v288H1598" stroke="#000" stroke-width="2" fill="none"/><path d="M1587.67 642.03h-2V641h2zM1599.02 929.33l-.02.74.02.68.03.25h-1.07v-2h1.07z"/><path d="M1660 1010c0 16.57-44.77 30-100 30s-100-13.43-100-30 44.77-30 100-30 100 13.43 100 30z" stroke="#000" stroke-width="2" fill="#fff"/><use xlink:href="#E" transform="matrix(1,0,0,1,1465,985) translate(37.30499999999999 30.025)"/><path d="M1860 603.17c0 12.8-24.62 23.16-55 23.16s-55-10.37-55-23.16c0-12.8 24.62-23.17 55-23.17s55 10.37 55 23.17z" stroke="#000" stroke-width="2" fill="#fff"/><use xlink:href="#F" transform="matrix(1,0,0,1,1755,585) translate(34.005 21.3375)"/><path d="M1712 604.67h36.1" stroke="#000" stroke-width="2" fill="none"/><path d="M1712.03 605.67H1711v-2h1.03zM1749.07 604.44l.17 1 .05.23h-1.22v-2h.94z"/><path d="M1848.4 676.33c0 16.57-22.03 30-49.2 30s-49.2-13.43-49.2-30 22.03-30 49.2-30 49.2 13.43 49.2 30z" stroke="#000" stroke-width="2" fill="#fff"/><use xlink:href="#G" transform="matrix(1,0,0,1,1755,651.3333333333333) translate(14.524999999999999 30.025)"/><path d="M1712 639.33h18v37h18" stroke="#000" stroke-width="2" fill="none"/><path d="M1712.03 640.33H1711v-2h1.03zM1749 676.32l.02.94v.07h-1.05v-2h1.08z"/><path d="M1548 626h-4.54v352.5" stroke="#000" stroke-width="2" fill="none"/><path d="M1549 627h-1.03v-2h1.03zM1544.46 979.46l-2 .1v-1.08h2z"/><path d="M1520 880c0 22.1-40.3 40-90 40s-90-17.9-90-40 40.3-40 90-40 90 17.9 90 40z" stroke="#000" stroke-width="2" fill="#fff"/><use xlink:href="#H" transform="matrix(1,0,0,1,1345,845) translate(34.275 38.4625)"/><use xlink:href="#I" transform="matrix(1,0,0,1,1345,845) translate(96.775 38.4625)"/><path d="M1548 610h-118v228" stroke="#000" stroke-width="2" fill="none"/><path d="M1549 611h-1.03v-2h1.03zM1431 839.03l-1-.03h-1v-1.03h2z"/><path d="M580 560h200v60H580z" stroke="#000" stroke-width="2" fill="#fff"/><use xlink:href="#J" transform="matrix(1,0,0,1,585,565) translate(41.099999999999994 30.025)"/><use xlink:href="#K" transform="matrix(1,0,0,1,585,565) translate(110 30.025)"/><path d="M1180 360l80 60-80 60-80-60z" stroke="#000" stroke-width="2" fill="#fff"/><g><use xlink:href="#L" transform="matrix(1,0,0,1,1105,365) translate(39.529999999999994 59.0875)"/></g><path d="M782 590h398V482.25" stroke="#000" stroke-width="2" fill="none"/><path d="M782.03 591H781v-2h1.03zM1180 481.25l1-.75v1.78h-2v-1.78z"/><path d="M1570.67 262v47.88H1180v47.87" stroke="#000" stroke-width="2" fill="none"/><path d="M1571.67 262.03h-2V261h2zM1181 359.5l-1-.75-1 .75v-1.78h2z"/><path d="M508 510c0 16.57-33.13 30-74 30s-74-13.43-74-30 33.13-30 74-30 74 13.43 74 30z" stroke="#000" stroke-width="2" fill="#fff"/><g><use xlink:href="#M" transform="matrix(1,0,0,1,365,485) translate(20.604999999999993 30.025)"/></g><defs><path d="M199 0l-22-63H83L61 0H9l90-248h61L250 0h-51zm-33-102l-36-108c-10 38-24 72-36 108h72" id="N"/><path d="M88-194c31-1 46 15 58 34l-1-101h50l1 261h-48c-2-10 0-23-3-31C134-8 116 4 84 4 32 4 16-41 15-95c0-56 19-97 73-99zm17 164c33 0 40-30 41-66 1-37-9-64-41-64s-38 30-39 65c0 43 13 65 39 65" id="O"/><path d="M220-157c-53 9-28 100-34 157h-49v-107c1-27-5-49-29-50C55-147 81-57 75 0H25l-1-190h47c2 12-1 28 3 38 10-53 101-56 108 0 13-22 24-43 59-42 82 1 51 116 57 194h-49v-107c-1-25-5-48-29-50" id="P"/><path d="M25-224v-37h50v37H25zM25 0v-190h50V0H25" id="Q"/><path d="M135-194c87-1 58 113 63 194h-50c-7-57 23-157-34-157-59 0-34 97-39 157H25l-1-190h47c2 12-1 28 3 38 12-26 28-41 61-42" id="R"/><g id="a"><use transform="matrix(0.05,0,0,0.05,0,0)" xlink:href="#N"/><use transform="matrix(0.05,0,0,0.05,12.950000000000001,0)" xlink:href="#O"/><use transform="matrix(0.05,0,0,0.05,23.900000000000002,0)" xlink:href="#P"/><use transform="matrix(0.05,0,0,0.05,39.900000000000006,0)" xlink:href="#Q"/><use transform="matrix(0.05,0,0,0.05,44.900000000000006,0)" xlink:href="#R"/></g><path d="M24 0v-248h52v208h133V0H24" id="S"/><path d="M110-194c64 0 96 36 96 99 0 64-35 99-97 99-61 0-95-36-95-99 0-62 34-99 96-99zm-1 164c35 0 45-28 45-65 0-40-10-65-43-65-34 0-45 26-45 65 0 36 10 65 43 65" id="T"/><path d="M190-63c-7 42-38 67-86 67-59 0-84-38-90-98-12-110 154-137 174-36l-49 2c-2-19-15-32-35-32-30 0-35 28-38 64-6 74 65 87 74 30" id="U"/><path d="M133-34C117-15 103 5 69 4 32 3 11-16 11-54c-1-60 55-63 116-61 1-26-3-47-28-47-18 1-26 9-28 27l-52-2c7-38 36-58 82-57s74 22 75 68l1 82c-1 14 12 18 25 15v27c-30 8-71 5-69-32zm-48 3c29 0 43-24 42-57-32 0-66-3-65 30 0 17 8 27 23 27" id="V"/><path d="M25 0v-261h50V0H25" id="W"/><g id="b"><use transform="matrix(0.05,0,0,0.05,0,0)" xlink:href="#S"/><use transform="matrix(0.05,0,0,0.05,10.950000000000001,0)" xlink:href="#T"/><use transform="matrix(0.05,0,0,0.05,21.900000000000002,0)" xlink:href="#U"/><use transform="matrix(0.05,0,0,0.05,31.900000000000002,0)" xlink:href="#V"/><use transform="matrix(0.05,0,0,0.05,41.900000000000006,0)" xlink:href="#W"/></g><path d="M240-174c0 40-23 61-54 70L253 0h-59l-57-94H76V0H24v-248c93 4 217-23 216 74zM76-134c48-2 112 12 112-38 0-48-66-32-112-35v73" id="X"/><path d="M185-48c-13 30-37 53-82 52C43 2 14-33 14-96s30-98 90-98c62 0 83 45 84 108H66c0 31 8 55 39 56 18 0 30-7 34-22zm-45-69c5-46-57-63-70-21-2 6-4 13-4 21h74" id="Y"/><path d="M135-194c53 0 70 44 70 98 0 56-19 98-73 100-31 1-45-17-59-34 3 33 2 69 2 105H25l-1-265h48c2 10 0 23 3 31 11-24 29-35 60-35zM114-30c33 0 39-31 40-66 0-38-9-64-40-64-56 0-55 130 0 130" id="Z"/><path d="M135-150c-39-12-60 13-60 57V0H25l-1-190h47c2 13-1 29 3 40 6-28 27-53 61-41v41" id="aa"/><path d="M137-138c1-29-70-34-71-4 15 46 118 7 119 86 1 83-164 76-172 9l43-7c4 19 20 25 44 25 33 8 57-30 24-41C81-84 22-81 20-136c-2-80 154-74 161-7" id="ab"/><path d="M115-3C79 11 28 4 28-45v-112H4v-33h27l15-45h31v45h36v33H77v99c-1 23 16 31 38 25v30" id="ac"/><path d="M128 0H69L1-190h53L99-40l48-150h52" id="ad"/><g id="c"><use transform="matrix(0.05,0,0,0.05,0,0)" xlink:href="#X"/><use transform="matrix(0.05,0,0,0.05,12.950000000000001,0)" xlink:href="#Y"/><use transform="matrix(0.05,0,0,0.05,22.950000000000003,0)" xlink:href="#Z"/><use transform="matrix(0.05,0,0,0.05,33.900000000000006,0)" xlink:href="#aa"/><use transform="matrix(0.05,0,0,0.05,40.900000000000006,0)" xlink:href="#Y"/><use transform="matrix(0.05,0,0,0.05,50.900000000000006,0)" xlink:href="#ab"/><use transform="matrix(0.05,0,0,0.05,60.900000000000006,0)" xlink:href="#Y"/><use transform="matrix(0.05,0,0,0.05,70.9,0)" xlink:href="#R"/><use transform="matrix(0.05,0,0,0.05,81.85000000000001,0)" xlink:href="#ac"/><use transform="matrix(0.05,0,0,0.05,87.80000000000001,0)" xlink:href="#V"/><use transform="matrix(0.05,0,0,0.05,97.80000000000001,0)" xlink:href="#ac"/><use transform="matrix(0.05,0,0,0.05,103.75,0)" xlink:href="#Q"/><use transform="matrix(0.05,0,0,0.05,108.75,0)" xlink:href="#ad"/><use transform="matrix(0.05,0,0,0.05,118.75,0)" xlink:href="#Y"/></g><path d="M240 0l2-218c-23 76-54 145-80 218h-23L58-218 59 0H30v-248h44l77 211c21-75 51-140 76-211h43V0h-30" id="ae"/><path d="M141-36C126-15 110 5 73 4 37 3 15-17 15-53c-1-64 63-63 125-63 3-35-9-54-41-54-24 1-41 7-42 31l-33-3c5-37 33-52 76-52 45 0 72 20 72 64v82c-1 20 7 32 28 27v20c-31 9-61-2-59-35zM48-53c0 20 12 33 32 33 41-3 63-29 60-74-43 2-92-5-92 41" id="af"/><path d="M117-194c89-4 53 116 60 194h-32v-121c0-31-8-49-39-48C34-167 62-67 57 0H25l-1-190h30c1 10-1 24 2 32 11-22 29-35 61-36" id="ag"/><path d="M177-190C167-65 218 103 67 71c-23-6-38-20-44-43l32-5c15 47 100 32 89-28v-30C133-14 115 1 83 1 29 1 15-40 15-95c0-56 16-97 71-98 29-1 48 16 59 35 1-10 0-23 2-32h30zM94-22c36 0 50-32 50-73 0-42-14-75-50-75-39 0-46 34-46 75s6 73 46 73" id="ah"/><path d="M100-194c63 0 86 42 84 106H49c0 40 14 67 53 68 26 1 43-12 49-29l28 8c-11 28-37 45-77 45C44 4 14-33 15-96c1-61 26-98 85-98zm52 81c6-60-76-77-97-28-3 7-6 17-6 28h103" id="ai"/><path d="M135-143c-3-34-86-38-87 0 15 53 115 12 119 90S17 21 10-45l28-5c4 36 97 45 98 0-10-56-113-15-118-90-4-57 82-63 122-42 12 7 21 19 24 35" id="aj"/><g id="d"><use transform="matrix(0.05,0,0,0.05,0,0)" xlink:href="#ae"/><use transform="matrix(0.05,0,0,0.05,14.950000000000001,0)" xlink:href="#af"/><use transform="matrix(0.05,0,0,0.05,24.950000000000003,0)" xlink:href="#ag"/><use transform="matrix(0.05,0,0,0.05,34.95,0)" xlink:href="#af"/><use transform="matrix(0.05,0,0,0.05,44.95,0)" xlink:href="#ah"/><use transform="matrix(0.05,0,0,0.05,54.95,0)" xlink:href="#ai"/><use transform="matrix(0.05,0,0,0.05,64.95,0)" xlink:href="#aj"/></g><path d="M212-179c-10-28-35-45-73-45-59 0-87 40-87 99 0 60 29 101 89 101 43 0 62-24 78-52l27 14C228-24 195 4 139 4 59 4 22-46 18-125c-6-104 99-153 187-111 19 9 31 26 39 46" id="ak"/><path d="M24 0v-261h32V0H24" id="al"/><g id="e"><use transform="matrix(0.05,0,0,0.05,0,0)" xlink:href="#ak"/><use transform="matrix(0.05,0,0,0.05,12.950000000000001,0)" xlink:href="#af"/><use transform="matrix(0.05,0,0,0.05,22.950000000000003,0)" xlink:href="#al"/><use transform="matrix(0.05,0,0,0.05,26.900000000000002,0)" xlink:href="#al"/></g><path d="M101-234c-31-9-42 10-38 44h38v23H63V0H32v-167H5v-23h27c-7-52 17-82 69-68v24" id="am"/><path d="M100-194c62-1 85 37 85 99 1 63-27 99-86 99S16-35 15-95c0-66 28-99 85-99zM99-20c44 1 53-31 53-75 0-43-8-75-51-75s-53 32-53 75 10 74 51 75" id="an"/><path d="M114-163C36-179 61-72 57 0H25l-1-190h30c1 12-1 29 2 39 6-27 23-49 58-41v29" id="ao"/><g id="f"><use transform="matrix(0.05,0,0,0.05,0,0)" xlink:href="#am"/><use transform="matrix(0.05,0,0,0.05,5,0)" xlink:href="#an"/><use transform="matrix(0.05,0,0,0.05,15,0)" xlink:href="#ao"/></g><path d="M33 0v-248h34V0H33" id="ap"/><path d="M59-47c-2 24 18 29 38 22v24C64 9 27 4 27-40v-127H5v-23h24l9-43h21v43h35v23H59v120" id="aq"/><path d="M108 0H70L1-190h34L89-25l56-165h34" id="ar"/><path d="M24-231v-30h32v30H24zM24 0v-190h32V0H24" id="as"/><path d="M206 0h-36l-40-164L89 0H53L-1-190h32L70-26l43-164h34l41 164 42-164h31" id="at"/><g id="g"><use transform="matrix(0.05,0,0,0.05,0,0)" xlink:href="#ap"/><use transform="matrix(0.05,0,0,0.05,5,0)" xlink:href="#ag"/><use transform="matrix(0.05,0,0,0.05,15,0)" xlink:href="#aq"/><use transform="matrix(0.05,0,0,0.05,20,0)" xlink:href="#ai"/><use transform="matrix(0.05,0,0,0.05,30,0)" xlink:href="#ao"/><use transform="matrix(0.05,0,0,0.05,35.95,0)" xlink:href="#ar"/><use transform="matrix(0.05,0,0,0.05,44.95,0)" xlink:href="#as"/><use transform="matrix(0.05,0,0,0.05,48.900000000000006,0)" xlink:href="#ai"/><use transform="matrix(0.05,0,0,0.05,58.900000000000006,0)" xlink:href="#at"/></g><path d="M14-72v-43h91v43H14" id="au"/><path d="M84 4C32 4 15-41 15-95c0-55 18-99 73-99 29 0 47 12 58 34l2-30h48l-1 265h-49V-32C136-9 114 4 84 4zm21-34c32 0 41-29 41-66 0-36-9-64-40-64-33 0-39 30-40 65 0 43 13 65 39 65" id="av"/><path d="M85 4C-2 5 27-109 22-190h50c7 57-23 150 33 157 60-5 35-97 40-157h50l1 190h-47c-2-12 1-28-3-38-12 25-28 42-61 42" id="aw"/><g id="h"><use transform="matrix(0.05,0,0,0.05,0,0)" xlink:href="#S"/><use transform="matrix(0.05,0,0,0.05,10.950000000000001,0)" xlink:href="#X"/><use transform="matrix(0.05,0,0,0.05,23.900000000000002,0)" xlink:href="#au"/><use transform="matrix(0.05,0,0,0.05,29.85,0)" xlink:href="#aa"/><use transform="matrix(0.05,0,0,0.05,36.85,0)" xlink:href="#Y"/><use transform="matrix(0.05,0,0,0.05,46.85,0)" xlink:href="#av"/><use transform="matrix(0.05,0,0,0.05,57.800000000000004,0)" xlink:href="#aw"/><use transform="matrix(0.05,0,0,0.05,68.75,0)" xlink:href="#Y"/><use transform="matrix(0.05,0,0,0.05,78.75,0)" xlink:href="#ab"/><use transform="matrix(0.05,0,0,0.05,88.75,0)" xlink:href="#ac"/></g><path d="M30 0v-248h187v28H63v79h144v27H63v87h162V0H30" id="ax"/><path d="M210-169c-67 3-38 105-44 169h-31v-121c0-29-5-50-35-48C34-165 62-65 56 0H25l-1-190h30c1 10-1 24 2 32 10-44 99-50 107 0 11-21 27-35 58-36 85-2 47 119 55 194h-31v-121c0-29-5-49-35-48" id="ay"/><path d="M-5 72V49h209v23H-5" id="az"/><path d="M85-194c31 0 48 13 60 33l-1-100h32l1 261h-30c-2-10 0-23-3-31C134-8 116 4 85 4 32 4 16-35 15-94c0-66 23-100 70-100zm9 24c-40 0-46 34-46 75 0 40 6 74 45 74 42 0 51-32 51-76 0-42-9-74-50-73" id="aA"/><g id="i"><use transform="matrix(0.05,0,0,0.05,0,0)" xlink:href="#ax"/><use transform="matrix(0.05,0,0,0.05,12,0)" xlink:href="#ay"/><use transform="matrix(0.05,0,0,0.05,26.950000000000003,0)" xlink:href="#af"/><use transform="matrix(0.05,0,0,0.05,36.95,0)" xlink:href="#as"/><use transform="matrix(0.05,0,0,0.05,40.900000000000006,0)" xlink:href="#al"/><use transform="matrix(0.05,0,0,0.05,44.85000000000001,0)" xlink:href="#az"/><use transform="matrix(0.05,0,0,0.05,54.85,0)" xlink:href="#as"/><use transform="matrix(0.05,0,0,0.05,58.80000000000001,0)" xlink:href="#aA"/></g><path d="M232-93c-1 65-40 97-104 97C67 4 28-28 28-90v-158h33c8 89-33 224 67 224 102 0 64-133 71-224h33v155" id="aB"/><g id="j"><use transform="matrix(0.05,0,0,0.05,0,0)" xlink:href="#aB"/><use transform="matrix(0.05,0,0,0.05,12.950000000000001,0)" xlink:href="#aj"/><use transform="matrix(0.05,0,0,0.05,21.950000000000003,0)" xlink:href="#ai"/><use transform="matrix(0.05,0,0,0.05,31.950000000000003,0)" xlink:href="#ao"/><use transform="matrix(0.05,0,0,0.05,37.900000000000006,0)" xlink:href="#az"/><use transform="matrix(0.05,0,0,0.05,47.900000000000006,0)" xlink:href="#as"/><use transform="matrix(0.05,0,0,0.05,51.85,0)" xlink:href="#aA"/></g><path d="M30-248c87 1 191-15 191 75 0 78-77 80-158 76V0H30v-248zm33 125c57 0 124 11 124-50 0-59-68-47-124-48v98" id="aC"/><g id="k"><use transform="matrix(0.05,0,0,0.05,0,0)" xlink:href="#aC"/><use transform="matrix(0.05,0,0,0.05,12,0)" xlink:href="#af"/><use transform="matrix(0.05,0,0,0.05,22,0)" xlink:href="#aj"/><use transform="matrix(0.05,0,0,0.05,31,0)" xlink:href="#aj"/><use transform="matrix(0.05,0,0,0.05,40,0)" xlink:href="#at"/><use transform="matrix(0.05,0,0,0.05,52.95,0)" xlink:href="#an"/><use transform="matrix(0.05,0,0,0.05,62.95,0)" xlink:href="#ao"/><use transform="matrix(0.05,0,0,0.05,68.9,0)" xlink:href="#aA"/></g><path d="M205 0l-28-72H64L36 0H1l101-248h38L239 0h-34zm-38-99l-47-123c-12 45-31 82-46 123h93" id="aD"/><g id="l"><use transform="matrix(0.05,0,0,0.05,0,0)" xlink:href="#aD"/><use transform="matrix(0.05,0,0,0.05,12,0)" xlink:href="#aA"/><use transform="matrix(0.05,0,0,0.05,22,0)" xlink:href="#aA"/><use transform="matrix(0.05,0,0,0.05,32,0)" xlink:href="#ao"/><use transform="matrix(0.05,0,0,0.05,37.95,0)" xlink:href="#ai"/><use transform="matrix(0.05,0,0,0.05,47.95,0)" xlink:href="#aj"/><use transform="matrix(0.05,0,0,0.05,56.95,0)" xlink:href="#aj"/></g><path d="M190 0L58-211 59 0H30v-248h39L202-35l-2-213h31V0h-41" id="aE"/><g id="m"><use transform="matrix(0.05,0,0,0.05,0,0)" xlink:href="#aE"/><use transform="matrix(0.05,0,0,0.05,12.950000000000001,0)" xlink:href="#af"/><use transform="matrix(0.05,0,0,0.05,22.950000000000003,0)" xlink:href="#ay"/><use transform="matrix(0.05,0,0,0.05,37.900000000000006,0)" xlink:href="#ai"/></g><path d="M115-194c53 0 69 39 70 98 0 66-23 100-70 100C84 3 66-7 56-30L54 0H23l1-261h32v101c10-23 28-34 59-34zm-8 174c40 0 45-34 45-75 0-40-5-75-45-74-42 0-51 32-51 76 0 43 10 73 51 73" id="aF"/><g id="n"><use transform="matrix(0.05,0,0,0.05,0,0)" xlink:href="#ae"/><use transform="matrix(0.05,0,0,0.05,14.950000000000001,0)" xlink:href="#an"/><use transform="matrix(0.05,0,0,0.05,24.950000000000003,0)" xlink:href="#aF"/><use transform="matrix(0.05,0,0,0.05,34.95,0)" xlink:href="#as"/><use transform="matrix(0.05,0,0,0.05,38.900000000000006,0)" xlink:href="#al"/><use transform="matrix(0.05,0,0,0.05,42.85000000000001,0)" xlink:href="#ai"/><use transform="matrix(0.05,0,0,0.05,52.85,0)" xlink:href="#az"/><use transform="matrix(0.05,0,0,0.05,62.85,0)" xlink:href="#aE"/><use transform="matrix(0.05,0,0,0.05,75.80000000000001,0)" xlink:href="#an"/></g><path d="M169-182c-1-43-94-46-97-3 18 66 151 10 154 114 3 95-165 93-204 36-6-8-10-19-12-30l50-8c3 46 112 56 116 5-17-69-150-10-154-114-4-87 153-88 188-35 5 8 8 18 10 28" id="aG"/><path d="M121-226c-27-7-43 5-38 36h38v33H83V0H34v-157H6v-33h28c-9-59 32-81 87-68v32" id="aH"/><g id="o"><use transform="matrix(0.05,0,0,0.05,0,0)" xlink:href="#aG"/><use transform="matrix(0.05,0,0,0.05,12,0)" xlink:href="#Z"/><use transform="matrix(0.05,0,0,0.05,22.950000000000003,0)" xlink:href="#Y"/><use transform="matrix(0.05,0,0,0.05,32.95,0)" xlink:href="#U"/><use transform="matrix(0.05,0,0,0.05,42.95,0)" xlink:href="#Q"/><use transform="matrix(0.05,0,0,0.05,47.95,0)" xlink:href="#aH"/><use transform="matrix(0.05,0,0,0.05,53.900000000000006,0)" xlink:href="#Q"/><use transform="matrix(0.05,0,0,0.05,58.900000000000006,0)" xlink:href="#U"/><use transform="matrix(0.05,0,0,0.05,68.9,0)" xlink:href="#V"/><use transform="matrix(0.05,0,0,0.05,78.9,0)" xlink:href="#ac"/><use transform="matrix(0.05,0,0,0.05,84.85000000000001,0)" xlink:href="#Q"/><use transform="matrix(0.05,0,0,0.05,89.85000000000001,0)" xlink:href="#T"/><use transform="matrix(0.05,0,0,0.05,100.80000000000001,0)" xlink:href="#R"/></g><path d="M266 0h-40l-56-210L115 0H75L2-248h35L96-30l15-64 43-154h32l59 218 59-218h35" id="aI"/><path d="M143 0L79-87 56-68V0H24v-261h32v163l83-92h37l-77 82L181 0h-38" id="aJ"/><path d="M179-190L93 31C79 59 56 82 12 73V49c39 6 53-20 64-50L1-190h34L92-34l54-156h33" id="aK"/><path d="M115-194c55 1 70 41 70 98S169 2 115 4C84 4 66-9 55-30l1 105H24l-1-265h31l2 30c10-21 28-34 59-34zm-8 174c40 0 45-34 45-75s-6-73-45-74c-42 0-51 32-51 76 0 43 10 73 51 73" id="aL"/><g id="p"><use transform="matrix(0.05,0,0,0.05,0,0)" xlink:href="#aI"/><use transform="matrix(0.05,0,0,0.05,16.599999999999998,0)" xlink:href="#an"/><use transform="matrix(0.05,0,0,0.05,26.599999999999994,0)" xlink:href="#ao"/><use transform="matrix(0.05,0,0,0.05,32.55,0)" xlink:href="#aJ"/><use transform="matrix(0.05,0,0,0.05,41.55,0)" xlink:href="#ai"/><use transform="matrix(0.05,0,0,0.05,51.54999999999999,0)" xlink:href="#ao"/><use transform="matrix(0.05,0,0,0.05,57.5,0)" xlink:href="#az"/><use transform="matrix(0.05,0,0,0.05,67.5,0)" xlink:href="#aq"/><use transform="matrix(0.05,0,0,0.05,72.5,0)" xlink:href="#aK"/><use transform="matrix(0.05,0,0,0.05,81.5,0)" xlink:href="#aL"/><use transform="matrix(0.05,0,0,0.05,91.5,0)" xlink:href="#ai"/></g><path d="M30-248c118-7 216 8 213 122C240-48 200 0 122 0H30v-248zM63-27c89 8 146-16 146-99s-60-101-146-95v194" id="aM"/><g id="q"><use transform="matrix(0.05,0,0,0.05,0,0)" xlink:href="#aM"/><use transform="matrix(0.05,0,0,0.05,12.950000000000001,0)" xlink:href="#af"/><use transform="matrix(0.05,0,0,0.05,22.950000000000003,0)" xlink:href="#aq"/><use transform="matrix(0.05,0,0,0.05,27.950000000000003,0)" xlink:href="#ai"/></g><g id="r"><use transform="matrix(0.05,0,0,0.05,0,0)" xlink:href="#an"/><use transform="matrix(0.05,0,0,0.05,10,0)" xlink:href="#am"/></g><g id="s"><use transform="matrix(0.05,0,0,0.05,0,0)" xlink:href="#af"/><use transform="matrix(0.05,0,0,0.05,10,0)" xlink:href="#aA"/><use transform="matrix(0.05,0,0,0.05,20,0)" xlink:href="#aA"/><use transform="matrix(0.05,0,0,0.05,30,0)" xlink:href="#as"/><use transform="matrix(0.05,0,0,0.05,33.95,0)" xlink:href="#aq"/><use transform="matrix(0.05,0,0,0.05,38.95,0)" xlink:href="#as"/><use transform="matrix(0.05,0,0,0.05,42.900000000000006,0)" xlink:href="#an"/><use transform="matrix(0.05,0,0,0.05,52.900000000000006,0)" xlink:href="#ag"/></g><path d="M160-131c35 5 61 23 61 61C221 17 115-2 30 0v-248c76 3 177-17 177 60 0 33-19 50-47 57zm-97-11c50-1 110 9 110-42 0-47-63-36-110-37v79zm0 115c55-2 124 14 124-45 0-56-70-42-124-44v89" id="aN"/><path d="M96-169c-40 0-48 33-48 73s9 75 48 75c24 0 41-14 43-38l32 2c-6 37-31 61-74 61-59 0-76-41-82-99-10-93 101-131 147-64 4 7 5 14 7 22l-32 3c-4-21-16-35-41-35" id="aO"/><path d="M106-169C34-169 62-67 57 0H25v-261h32l-1 103c12-21 28-36 61-36 89 0 53 116 60 194h-32v-121c2-32-8-49-39-48" id="aP"/><g id="t"><use transform="matrix(0.05,0,0,0.05,0,0)" xlink:href="#aN"/><use transform="matrix(0.05,0,0,0.05,12,0)" xlink:href="#ao"/><use transform="matrix(0.05,0,0,0.05,17.95,0)" xlink:href="#af"/><use transform="matrix(0.05,0,0,0.05,27.950000000000003,0)" xlink:href="#ag"/><use transform="matrix(0.05,0,0,0.05,37.95,0)" xlink:href="#aO"/><use transform="matrix(0.05,0,0,0.05,46.95,0)" xlink:href="#aP"/></g><g id="u"><use transform="matrix(0.05,0,0,0.05,0,0)" xlink:href="#ag"/><use transform="matrix(0.05,0,0,0.05,10,0)" xlink:href="#af"/><use transform="matrix(0.05,0,0,0.05,20,0)" xlink:href="#ay"/><use transform="matrix(0.05,0,0,0.05,34.95,0)" xlink:href="#ai"/></g><g id="v"><use transform="matrix(0.05,0,0,0.05,0,0)" xlink:href="#aN"/><use transform="matrix(0.05,0,0,0.05,12,0)" xlink:href="#ao"/><use transform="matrix(0.05,0,0,0.05,17.95,0)" xlink:href="#af"/><use transform="matrix(0.05,0,0,0.05,27.950000000000003,0)" xlink:href="#ag"/><use transform="matrix(0.05,0,0,0.05,37.95,0)" xlink:href="#aO"/><use transform="matrix(0.05,0,0,0.05,46.95,0)" xlink:href="#aP"/><use transform="matrix(0.05,0,0,0.05,56.95,0)" xlink:href="#az"/><use transform="matrix(0.05,0,0,0.05,66.95,0)" xlink:href="#as"/><use transform="matrix(0.05,0,0,0.05,70.9,0)" xlink:href="#aA"/></g><g id="w"><use transform="matrix(0.05,0,0,0.05,0,0)" xlink:href="#aC"/><use transform="matrix(0.05,0,0,0.05,12,0)" xlink:href="#af"/><use transform="matrix(0.05,0,0,0.05,22,0)" xlink:href="#aK"/><use transform="matrix(0.05,0,0,0.05,31,0)" xlink:href="#ay"/><use transform="matrix(0.05,0,0,0.05,45.95,0)" xlink:href="#ai"/><use transform="matrix(0.05,0,0,0.05,55.95,0)" xlink:href="#ag"/><use transform="matrix(0.05,0,0,0.05,65.95,0)" xlink:href="#aq"/><use transform="matrix(0.05,0,0,0.05,70.95,0)" xlink:href="#az"/><use transform="matrix(0.05,0,0,0.05,80.95,0)" xlink:href="#as"/><use transform="matrix(0.05,0,0,0.05,84.9,0)" xlink:href="#aA"/></g><path d="M275 0h-61l-44-196L126 0H64L0-248h53L97-49l45-199h58l43 199 44-199h52" id="aQ"/><path d="M147 0L96-86 75-71V0H25v-261h50v150l67-79h53l-66 74L201 0h-54" id="aR"/><g id="x"><use transform="matrix(0.05,0,0,0.05,0,0)" xlink:href="#aQ"/><use transform="matrix(0.05,0,0,0.05,16.599999999999998,0)" xlink:href="#T"/><use transform="matrix(0.05,0,0,0.05,27.549999999999997,0)" xlink:href="#aa"/><use transform="matrix(0.05,0,0,0.05,34.55,0)" xlink:href="#aR"/><use transform="matrix(0.05,0,0,0.05,44.55,0)" xlink:href="#Y"/><use transform="matrix(0.05,0,0,0.05,54.54999999999999,0)" xlink:href="#aa"/></g><g id="y"><use transform="matrix(0.05,0,0,0.05,0,0)" xlink:href="#aN"/><use transform="matrix(0.05,0,0,0.05,12,0)" xlink:href="#ai"/><use transform="matrix(0.05,0,0,0.05,22,0)" xlink:href="#al"/><use transform="matrix(0.05,0,0,0.05,25.950000000000003,0)" xlink:href="#an"/><use transform="matrix(0.05,0,0,0.05,35.95,0)" xlink:href="#ag"/><use transform="matrix(0.05,0,0,0.05,45.95,0)" xlink:href="#ah"/><use transform="matrix(0.05,0,0,0.05,55.95,0)" xlink:href="#aj"/></g><g id="z"><use transform="matrix(0.05,0,0,0.05,0,0)" xlink:href="#aq"/><use transform="matrix(0.05,0,0,0.05,5,0)" xlink:href="#an"/></g><g id="A"><use transform="matrix(0.05,0,0,0.05,0,0)" xlink:href="#aI"/><use transform="matrix(0.05,0,0,0.05,16.599999999999998,0)" xlink:href="#an"/><use transform="matrix(0.05,0,0,0.05,26.599999999999994,0)" xlink:href="#ao"/><use transform="matrix(0.05,0,0,0.05,32.55,0)" xlink:href="#aJ"/><use transform="matrix(0.05,0,0,0.05,41.55,0)" xlink:href="#ai"/><use transform="matrix(0.05,0,0,0.05,51.54999999999999,0)" xlink:href="#ao"/><use transform="matrix(0.05,0,0,0.05,57.5,0)" xlink:href="#az"/><use transform="matrix(0.05,0,0,0.05,67.5,0)" xlink:href="#as"/><use transform="matrix(0.05,0,0,0.05,71.45,0)" xlink:href="#aA"/><path d="M-.9 1.25h83.25v1.32H-.9z"/></g><g id="B"><use transform="matrix(0.05,0,0,0.05,0,0)" xlink:href="#aD"/><use transform="matrix(0.05,0,0,0.05,12,0)" xlink:href="#aA"/><use transform="matrix(0.05,0,0,0.05,22,0)" xlink:href="#aP"/><use transform="matrix(0.05,0,0,0.05,32,0)" xlink:href="#af"/><use transform="matrix(0.05,0,0,0.05,42,0)" xlink:href="#ao"/><use transform="matrix(0.05,0,0,0.05,47.95,0)" xlink:href="#az"/><use transform="matrix(0.05,0,0,0.05,57.95,0)" xlink:href="#as"/><use transform="matrix(0.05,0,0,0.05,61.900000000000006,0)" xlink:href="#aA"/></g><path d="M141 0L90-78 38 0H4l68-98-65-92h35l48 74 47-74h35l-64 92 68 98h-35" id="aS"/><g id="C"><use transform="matrix(0.05,0,0,0.05,0,0)" xlink:href="#ax"/><use transform="matrix(0.05,0,0,0.05,12,0)" xlink:href="#aS"/><use transform="matrix(0.05,0,0,0.05,21,0)" xlink:href="#aL"/><use transform="matrix(0.05,0,0,0.05,31,0)" xlink:href="#ai"/><use transform="matrix(0.05,0,0,0.05,41,0)" xlink:href="#ao"/><use transform="matrix(0.05,0,0,0.05,46.95,0)" xlink:href="#as"/><use transform="matrix(0.05,0,0,0.05,50.900000000000006,0)" xlink:href="#ai"/><use transform="matrix(0.05,0,0,0.05,60.900000000000006,0)" xlink:href="#ag"/><use transform="matrix(0.05,0,0,0.05,70.9,0)" xlink:href="#aO"/><use transform="matrix(0.05,0,0,0.05,79.9,0)" xlink:href="#ai"/></g><g id="D"><use transform="matrix(0.05,0,0,0.05,0,0)" xlink:href="#aN"/><use transform="matrix(0.05,0,0,0.05,12,0)" xlink:href="#as"/><use transform="matrix(0.05,0,0,0.05,15.949999999999998,0)" xlink:href="#ao"/><use transform="matrix(0.05,0,0,0.05,21.9,0)" xlink:href="#aq"/><use transform="matrix(0.05,0,0,0.05,26.899999999999995,0)" xlink:href="#aP"/></g><g id="E"><use transform="matrix(0.05,0,0,0.05,0,0)" xlink:href="#aI"/><use transform="matrix(0.05,0,0,0.05,16.599999999999998,0)" xlink:href="#an"/><use transform="matrix(0.05,0,0,0.05,26.599999999999994,0)" xlink:href="#ao"/><use transform="matrix(0.05,0,0,0.05,32.55,0)" xlink:href="#aJ"/><use transform="matrix(0.05,0,0,0.05,41.55,0)" xlink:href="#ai"/><use transform="matrix(0.05,0,0,0.05,51.54999999999999,0)" xlink:href="#ao"/><use transform="matrix(0.05,0,0,0.05,57.5,0)" xlink:href="#az"/><use transform="matrix(0.05,0,0,0.05,67.5,0)" xlink:href="#aE"/><use transform="matrix(0.05,0,0,0.05,80.45,0)" xlink:href="#af"/><use transform="matrix(0.05,0,0,0.05,90.45,0)" xlink:href="#ay"/><use transform="matrix(0.05,0,0,0.05,105.4,0)" xlink:href="#ai"/></g><g id="F"><use transform="matrix(0.05,0,0,0.05,0,0)" xlink:href="#aD"/><use transform="matrix(0.05,0,0,0.05,12,0)" xlink:href="#ah"/><use transform="matrix(0.05,0,0,0.05,22,0)" xlink:href="#ai"/></g><path d="M143 4C61 4 22-44 18-125c-5-107 100-154 193-111 17 8 29 25 37 43l-32 9c-13-25-37-40-76-40-61 0-88 39-88 99 0 61 29 100 91 101 35 0 62-11 79-27v-45h-74v-28h105v86C228-13 192 4 143 4" id="aT"/><g id="G"><use transform="matrix(0.05,0,0,0.05,0,0)" xlink:href="#aT"/><use transform="matrix(0.05,0,0,0.05,14,0)" xlink:href="#ai"/><use transform="matrix(0.05,0,0,0.05,24,0)" xlink:href="#ag"/><use transform="matrix(0.05,0,0,0.05,34,0)" xlink:href="#aA"/><use transform="matrix(0.05,0,0,0.05,44,0)" xlink:href="#ai"/><use transform="matrix(0.05,0,0,0.05,54,0)" xlink:href="#ao"/></g><g id="H"><use transform="matrix(0.05,0,0,0.05,0,0)" xlink:href="#aI"/><use transform="matrix(0.05,0,0,0.05,16.599999999999998,0)" xlink:href="#an"/><use transform="matrix(0.05,0,0,0.05,26.599999999999994,0)" xlink:href="#ao"/><use transform="matrix(0.05,0,0,0.05,32.55,0)" xlink:href="#aJ"/><use transform="matrix(0.05,0,0,0.05,41.55,0)" xlink:href="#ai"/><use transform="matrix(0.05,0,0,0.05,51.54999999999999,0)" xlink:href="#ao"/></g><path d="M127-220V0H93v-220H8v-28h204v28h-85" id="aU"/><g id="I"><use transform="matrix(0.05,0,0,0.05,0,0)" xlink:href="#aU"/><use transform="matrix(0.05,0,0,0.05,9.950000000000001,0)" xlink:href="#aK"/><use transform="matrix(0.05,0,0,0.05,18.950000000000003,0)" xlink:href="#aL"/><use transform="matrix(0.05,0,0,0.05,28.950000000000003,0)" xlink:href="#ai"/></g><path d="M233-177c-1 41-23 64-60 70L243 0h-38l-65-103H63V0H30v-248c88 3 205-21 203 71zM63-129c60-2 137 13 137-47 0-61-80-42-137-45v92" id="aV"/><g id="J"><use transform="matrix(0.05,0,0,0.05,0,0)" xlink:href="#aV"/><use transform="matrix(0.05,0,0,0.05,12.950000000000001,0)" xlink:href="#ai"/><use transform="matrix(0.05,0,0,0.05,22.950000000000003,0)" xlink:href="#am"/><use transform="matrix(0.05,0,0,0.05,27.950000000000003,0)" xlink:href="#ai"/><use transform="matrix(0.05,0,0,0.05,37.95,0)" xlink:href="#ao"/><use transform="matrix(0.05,0,0,0.05,43.900000000000006,0)" xlink:href="#ai"/><use transform="matrix(0.05,0,0,0.05,53.900000000000006,0)" xlink:href="#aA"/></g><g id="K"><use transform="matrix(0.05,0,0,0.05,0,0)" xlink:href="#ae"/><use transform="matrix(0.05,0,0,0.05,14.950000000000001,0)" xlink:href="#af"/><use transform="matrix(0.05,0,0,0.05,24.950000000000003,0)" xlink:href="#as"/><use transform="matrix(0.05,0,0,0.05,28.900000000000002,0)" xlink:href="#aA"/></g><g id="L"><use transform="matrix(0.05,0,0,0.05,0,0)" xlink:href="#ak"/><use transform="matrix(0.05,0,0,0.05,12.950000000000001,0)" xlink:href="#an"/><use transform="matrix(0.05,0,0,0.05,22.950000000000003,0)" xlink:href="#ag"/><use transform="matrix(0.05,0,0,0.05,32.95,0)" xlink:href="#aq"/><use transform="matrix(0.05,0,0,0.05,37.95,0)" xlink:href="#af"/><use transform="matrix(0.05,0,0,0.05,47.95,0)" xlink:href="#aO"/><use transform="matrix(0.05,0,0,0.05,56.95,0)" xlink:href="#aq"/><use transform="matrix(0.05,0,0,0.05,61.95,0)" xlink:href="#aj"/></g><g id="M"><use transform="matrix(0.05,0,0,0.05,0,0)" xlink:href="#ae"/><use transform="matrix(0.05,0,0,0.05,14.950000000000001,0)" xlink:href="#af"/><use transform="matrix(0.05,0,0,0.05,24.950000000000003,0)" xlink:href="#as"/><use transform="matrix(0.05,0,0,0.05,28.900000000000002,0)" xlink:href="#aA"/><use transform="matrix(0.05,0,0,0.05,38.900000000000006,0)" xlink:href="#az"/><use transform="matrix(0.05,0,0,0.05,48.900000000000006,0)" xlink:href="#aE"/><use transform="matrix(0.05,0,0,0.05,61.85,0)" xlink:href="#af"/><use transform="matrix(0.05,0,0,0.05,71.85000000000001,0)" xlink:href="#ay"/><use transform="matrix(0.05,0,0,0.05,86.80000000000001,0)" xlink:href="#ai"/></g></defs></g></svg>